HIERARCHY
ROOT Hips
{
	OFFSET 62.890800 8.863803 43.568401
	CHANNELS 6 Xposition Yposition Zposition Zrotation Xrotation Yrotation
	JOINT Chest
	{
		OFFSET -0.160400 1.630001 7.806301
		CHANNELS 6 Xposition Yposition Zposition Zrotation Xrotation Yrotation
		JOINT Chest2
		{
			OFFSET 0.000000 0.000000 3.197998
			CHANNELS 6 Xposition Yposition Zposition Zrotation Xrotation Yrotation
			JOINT Neck
			{
				OFFSET 0.000000 0.000001 7.440701
				CHANNELS 6 Xposition Yposition Zposition Zrotation Xrotation Yrotation
				JOINT Head
				{
					OFFSET 0.000000 0.000000 2.173901
					CHANNELS 6 Xposition Yposition Zposition Zrotation Xrotation Yrotation
					End Site
					{
						OFFSET 0.000000 0.000001 10.420303
					}
				}
			}
			JOINT LeftCollar
			{
				OFFSET 2.426399 -1.880099 4.759399
				CHANNELS 6 Xposition Yposition Zposition Zrotation Xrotation Yrotation
				JOINT LeftShoulder
				{
					OFFSET 4.420197 0.000000 0.000000
					CHANNELS 6 Xposition Yposition Zposition Zrotation Xrotation Yrotation
					JOINT LeftElbow
					{
						OFFSET 0.000000 -0.000001 -10.347099
						CHANNELS 6 Xposition Yposition Zposition Zrotation Xrotation Yrotation
						JOINT LeftWrist
						{
							OFFSET 0.000000 -0.000001 -12.496300
							CHANNELS 6 Xposition Yposition Zposition Zrotation Xrotation Yrotation
							End Site
							{
								OFFSET 0.000000 0.000000 -2.173901
							}
						}
					}
				}
			}
			JOINT RightCollar
			{
				OFFSET -2.781502 -1.903799 5.072601
				CHANNELS 6 Xposition Yposition Zposition Zrotation Xrotation Yrotation
				JOINT RightShoulder
				{
					OFFSET -4.012100 0.000000 0.000000
					CHANNELS 6 Xposition Yposition Zposition Zrotation Xrotation Yrotation
					JOINT RightElbow
					{
						OFFSET 0.000000 -0.000001 -10.346600
						CHANNELS 6 Xposition Yposition Zposition Zrotation Xrotation Yrotation
						JOINT RightWrist
						{
							OFFSET 0.000000 -0.000001 -12.562599
							CHANNELS 6 Xposition Yposition Zposition Zrotation Xrotation Yrotation
							End Site
							{
								OFFSET 0.000000 0.000000 -2.173901
							}
						}
					}
				}
			}
		}
	}
	JOINT LeftHip
	{
		OFFSET 2.047997 -0.047200 -2.693199
		CHANNELS 6 Xposition Yposition Zposition Zrotation Xrotation Yrotation
		JOINT LeftKnee
		{
			OFFSET 0.000000 -0.000001 -18.824400
			CHANNELS 6 Xposition Yposition Zposition Zrotation Xrotation Yrotation
			JOINT LeftAnkle
			{
				OFFSET 0.000000 -0.000002 -19.078199
				CHANNELS 6 Xposition Yposition Zposition Zrotation Xrotation Yrotation
				End Site
				{
					OFFSET 0.000000 -9.342100 0.000001
				}
			}
		}
	}
	JOINT RightHip
	{
		OFFSET -2.129898 -0.022300 -2.538300
		CHANNELS 6 Xposition Yposition Zposition Zrotation Xrotation Yrotation
		JOINT RightKnee
		{
			OFFSET 0.000000 -0.000001 -18.644600
			CHANNELS 6 Xposition Yposition Zposition Zrotation Xrotation Yrotation
			JOINT RightAnkle
			{
				OFFSET 0.000000 -0.000002 -18.801399
				CHANNELS 6 Xposition Yposition Zposition Zrotation Xrotation Yrotation
				End Site
				{
					OFFSET 0.000000 -8.914600 0.000001
				}
			}
		}
	}
}
MOTION
Frames: 5
Frame Time: 0.041667
-15.277321 -49.290794 35.880161 -315.732953 8.187830 -10.071708 -0.160395 1.630006 7.806298 68.171579 8.752466 10.401341 0.000009 -0.000005 3.198008 -14.781376 0.714764 -0.282573 -0.000009 0.000002 7.440701 -10.921919 0.627416 9.205820 -0.000011 0.000000 2.173908 -2.310404 -2.482504 -2.887433 2.426404 -1.880103 4.759396 -177.052929 171.613858 -171.324408 4.420190 -0.000003 0.000006 -21.124655 31.032019 -35.164905 0.000011 0.000000 -10.347090 330.291365 -30.824961 1.094853 -0.000009 0.000002 -12.496298 -24.821092 164.365661 220.783679 -2.781504 -1.903803 5.072608 -159.480600 -194.189668 187.694117 -4.012094 0.000009 0.000001 44.978882 -22.263743 511.574830 0.000000 0.000003 -10.346604 -86.714169 -8.089670 -15.525676 0.000005 0.000006 -12.562600 1346.028003 -175.626375 222.216475 2.048007 -0.047192 -2.693202 -244.806220 -13.678699 63.688311 0.000002 0.000011 -18.824400 138.035815 136.049514 -196.042152 -0.000001 -0.000002 -19.078201 266.414069 23.062380 44.562053 -2.129895 -0.022298 -2.538301 -631.200840 39.106166 -4.747804 0.000006 0.000002 -18.644602 525.205320 163.797908 126.206323 0.000003 -0.000004 -18.801399 -69.487927 -15.648672 -82.831917
-15.437317 -49.269592 35.755154 -315.702053 7.893126 -10.106302 -0.160399 1.629997 7.806298 68.628996 8.982823 9.860819 0.000009 -0.000002 3.198002 -14.974467 0.678314 -0.290892 -0.000010 0.000000 7.440694 -11.140977 0.729671 9.414508 -0.000009 -0.000001 2.173905 -2.382207 -2.505490 -2.950271 2.426393 -1.880102 4.759386 -176.905028 171.533057 -171.321512 4.420195 -0.000005 0.000004 -20.812976 31.287550 -35.748192 -0.000005 0.000000 -10.347097 330.577276 -31.189492 1.156167 -0.000010 0.000002 -12.496296 -25.316378 164.305309 220.592516 -2.781507 -1.903799 5.072601 -157.908714 -194.955606 186.416052 -4.012104 0.000003 0.000010 43.082822 -21.792560 510.386432 0.000006 -0.000005 -10.346598 -86.650806 -9.532519 -15.887428 -0.000006 0.000002 -12.562599 1345.651741 -176.368844 222.160099 2.047997 -0.047200 -2.693197 -244.876215 -13.901602 63.694772 0.000011 0.000002 -18.824404 137.158996 135.727347 -195.520203 -0.000001 -0.000001 -19.078199 267.193886 23.108238 44.236188 -2.129896 -0.022303 -2.538306 -629.925507 39.219093 -5.391303 -0.000001 -0.000002 -18.644600 525.128330 164.150251 125.199676 0.000001 -0.000004 -18.801405 -69.430662 -16.066260 -82.531471
-15.598907 -49.252499 35.628349 -315.651947 7.593741 -10.144074 -0.160400 1.630002 7.806307 69.076353 9.215819 9.305363 0.000006 0.000000 3.198006 -15.178361 0.647587 -0.284867 0.000000 0.000006 7.440706 -11.355657 0.817898 9.625552 -0.000004 0.000001 2.173910 -2.445167 -2.468677 -3.047046 2.426408 -1.880096 4.759397 -176.771320 171.449155 -171.297811 4.420189 0.000001 0.000006 -20.494717 31.520497 -36.342067 0.000003 -0.000004 -10.347094 330.805787 -31.536585 1.176697 0.000004 0.000000 -12.496301 -25.756343 164.238660 220.474668 -2.781500 -1.903798 5.072604 -156.427096 -195.675426 185.168860 -4.012097 0.000004 0.000005 41.587407 -21.449748 509.587300 0.000006 -0.000006 -10.346599 -86.707981 -10.433391 -16.218045 -0.000003 -0.000003 -12.562601 1345.414925 -176.681940 222.204645 2.047997 -0.047198 -2.693198 -244.946758 -14.108163 63.708091 0.000003 -0.000002 -18.824396 135.875917 135.292046 -194.759866 -0.000000 -0.000002 -19.078197 268.322643 23.206659 43.631730 -2.129899 -0.022298 -2.538301 -628.697603 39.323260 -5.998285 0.000009 -0.000003 -18.644596 524.998884 164.454877 124.178863 0.000001 0.000002 -18.801399 -69.290377 -16.487614 -82.177694
-15.758911 -49.239296 35.502457 -315.584082 7.297693 -10.184271 -0.160406 1.629999 7.806299 69.500310 9.455290 8.760129 0.000010 -0.000001 3.197996 -15.385145 0.614410 -0.279601 -0.000004 0.000001 7.440706 -11.555415 0.893185 9.831046 -0.000003 0.000000 2.173913 -2.514510 -2.428083 -3.132286 2.426395 -1.880102 4.759400 -176.647639 171.365922 -171.258428 4.420197 -0.000003 -0.000001 -20.180777 31.731983 -36.932684 0.000000 -0.000003 -10.347094 330.990011 -31.865319 1.166286 -0.000005 0.000002 -12.496288 -26.148003 164.167667 220.416516 -2.781504 -1.903803 5.072608 -156.350830 -196.145083 183.764778 -4.012101 0.000002 0.000000 41.866293 -20.784245 509.482552 -0.000006 -0.000002 -10.346595 -86.856162 -10.880810 -16.531500 -0.000008 0.000004 -12.562594 1345.563987 -176.936515 222.311278 2.047991 -0.047203 -2.693199 -245.017846 -14.295660 63.727857 -0.000000 -0.000002 -18.824400 134.272394 134.785205 -193.802465 -0.000001 0.000000 -19.078199 269.713406 23.342810 42.812015 -2.129900 -0.022302 -2.538302 -627.528329 39.418903 -6.637269 0.000003 0.000005 -18.644590 524.802339 164.736144 123.234467 0.000007 -0.000004 -18.801395 -69.088579 -16.903962 -81.783497
-15.914116 -49.229393 35.380058 -315.502557 7.013061 -10.225203 -0.160398 1.630001 7.806304 69.895812 9.691935 8.236060 0.000006 0.000001 3.197998 -15.297973 0.580873 -0.356565 -0.000009 0.000002 7.440697 -12.029053 0.938497 10.104802 -0.000004 0.000000 2.173904 -2.588611 -2.384057 -3.204907 2.426397 -1.880098 4.759395 -176.836958 171.282266 -171.127944 4.420192 -0.000001 0.000004 -19.879815 31.920647 -37.505757 0.000001 0.000000 -10.347103 331.137789 -32.172640 1.132080 -0.000010 -0.000001 -12.496292 -26.493638 164.094885 220.406038 -2.781501 -1.903799 5.072601 -155.575590 -196.726168 182.713270 -4.012103 0.000003 -0.000003 41.223494 -20.641986 509.242403 0.000000 -0.000003 -10.346600 -87.044545 -10.981236 -16.862999 -0.000003 0.000001 -12.562597 1345.982650 -177.140232 222.451598 2.047994 -0.047203 -2.693206 -245.087186 -14.463148 63.755144 -0.000000 0.000007 -18.824404 132.455441 134.249021 -192.705318 -0.000008 -0.000001 -19.078197 271.266072 23.501453 41.847486 -2.129902 -0.022303 -2.538299 -626.438012 39.503010 -7.249313 0.000008 -0.000005 -18.644594 524.565632 164.978698 122.338797 0.000002 -0.000005 -18.801399 -68.841354 -17.305782 -81.364266
